<?xml version="1.0" encoding="UTF-8" standalone="no"?>
<!-- Uploaded to: SVG Repo, www.svgrepo.com, Generator: SVG Repo Mixer Tools -->

<svg
   fill="#000000"
   height="800px"
   width="800px"
   version="1.1"
   id="Capa_1"
   viewBox="0 0 365.892 365.892"
   xml:space="preserve"
   sodipodi:docname="wifi.svg"
   inkscape:version="1.3.2 (091e20e, 2023-11-25)"
   xmlns:inkscape="http://www.inkscape.org/namespaces/inkscape"
   xmlns:sodipodi="http://sodipodi.sourceforge.net/DTD/sodipodi-0.dtd"
   xmlns="http://www.w3.org/2000/svg"
   xmlns:svg="http://www.w3.org/2000/svg"><defs
   id="defs3" /><sodipodi:namedview
   id="namedview3"
   pagecolor="#ffffff"
   bordercolor="#000000"
   borderopacity="0.25"
   inkscape:showpageshadow="2"
   inkscape:pageopacity="0.0"
   inkscape:pagecheckerboard="0"
   inkscape:deskcolor="#d1d1d1"
   inkscape:zoom="0.925"
   inkscape:cx="398.91892"
   inkscape:cy="399.45946"
   inkscape:window-width="1392"
   inkscape:window-height="1212"
   inkscape:window-x="962"
   inkscape:window-y="25"
   inkscape:window-maximized="0"
   inkscape:current-layer="Capa_1" />
<g
   id="g3"
   style="fill:#868686;fill-opacity:1">
	<circle
   cx="182.945"
   cy="286.681"
   r="41.494"
   id="circle1"
   style="fill:#868686;fill-opacity:1" />
	<path
   d="M182.946,176.029c-35.658,0-69.337,17.345-90.09,46.398c-5.921,8.288-4.001,19.806,4.286,25.726   c3.249,2.321,6.994,3.438,10.704,3.438c5.754,0,11.423-2.686,15.021-7.724c13.846-19.383,36.305-30.954,60.078-30.954   c23.775,0,46.233,11.571,60.077,30.953c5.919,8.286,17.437,10.209,25.726,4.288c8.288-5.92,10.208-17.438,4.288-25.726   C252.285,193.373,218.606,176.029,182.946,176.029z"
   id="path1"
   style="fill:#868686;fill-opacity:1" />
	<path
   d="M182.946,106.873c-50.938,0-99.694,21.749-133.77,59.67c-6.807,7.576-6.185,19.236,1.392,26.044   c3.523,3.166,7.929,4.725,12.32,4.725c5.051-0.001,10.082-2.063,13.723-6.116c27.091-30.148,65.849-47.439,106.336-47.439   s79.246,17.291,106.338,47.438c6.808,7.576,18.468,8.198,26.043,1.391c7.576-6.808,8.198-18.468,1.391-26.043   C282.641,128.621,233.883,106.873,182.946,106.873z"
   id="path2"
   style="fill:#868686;fill-opacity:1" />
	<path
   d="M360.611,112.293c-47.209-48.092-110.305-74.577-177.665-74.577c-67.357,0-130.453,26.485-177.664,74.579   c-7.135,7.269-7.027,18.944,0.241,26.079c3.59,3.524,8.255,5.282,12.918,5.281c4.776,0,9.551-1.845,13.161-5.522   c40.22-40.971,93.968-63.534,151.344-63.534c57.379,0,111.127,22.563,151.343,63.532c7.136,7.269,18.812,7.376,26.08,0.242   C367.637,131.238,367.745,119.562,360.611,112.293z"
   id="path3"
   style="fill:#868686;fill-opacity:1" />
</g>
</svg>
